<?xml version="1.0" encoding="UTF-8"?>
<svg width="200" height="200" version="1.1" viewBox="0 0 60 60" xml:space="preserve" xmlns="http://www.w3.org/2000/svg"><path d="m55.757 59.761c-0.28572-0.13398-3.9956-3.7133-8.812-8.5019l-8.3186-8.2705-0.82501 0.61688c-1.0707 0.80061-2.9541 1.8498-4.4622 2.4859-4.4743 1.8871-9.4611 2.3925-14.193 1.4386-8.317-1.6766-15.283-7.8005-17.939-15.771-1.0132-3.0407-1.2002-4.2295-1.2069-7.6761-5e-3 -2.623 0.0377-3.2435 0.32028-4.6375 2.3196-11.442 12.064-19.451 23.661-19.446 3.7566 1e-3 6.8988 0.71169 10.313 2.3305 5.213 2.4719 9.3333 6.714 11.668 12.013 2.8511 6.4716 2.6586 14.009-0.52051 20.374-0.69507 1.3918-2.1033 3.636-2.3943 3.8156-0.08446 0.0521 3.4861 3.7361 8.1611 8.4202 5.2489 5.2592 8.3974 8.517 8.545 8.8418 0.61899 1.3618 0.03225 3.1047-1.2866 3.8217-0.82942 0.45095-1.9307 0.5097-2.7095 0.14451zm-28.816-18.006c5.7472-0.99084 10.605-4.6207 13.188-9.8546 2.9086-5.8931 2.3123-13.075-1.528-18.404-1.6059-2.228-4.1538-4.412-6.5672-5.629-4.2555-2.1459-9.6294-2.4803-14.096-0.87708-6.0106 2.1576-10.419 7.2237-11.658 13.398-0.39144 1.9501-0.48681 3.6713-0.29741 5.3672 0.48661 4.3569 2.1541 7.8526 5.2222 10.948 2.5935 2.6162 6.0938 4.4534 9.6053 5.0414 1.6162 0.27066 4.5916 0.27565 6.1308 0.0103z" stroke-width=".14092"/></svg>
