<?xml version="1.0" encoding="UTF-8"?>
<svg width="200" height="200" version="1.1" viewBox="0 0 112 112" xml:space="preserve" xmlns="http://www.w3.org/2000/svg"><path d="m10.335 111.88c-4.8192-1.0388-8.9518-5.2118-9.9716-10.069-0.48432-2.3068-0.48432-80.323 0-82.63 1.0311-4.911 5.1702-9.0501 10.081-10.081 0.94307-0.198 2.7799-0.32359 4.7671-0.32593l3.2329-4e-3v-8.7671h8.7671v8.7671h57.863v-8.7671h8.7671v8.7671l3.2329 4e-3c1.9872 2e-3 3.824 0.12793 4.7671 0.32592 4.911 1.0311 9.0501 5.1702 10.081 10.081 0.48432 2.3068 0.48432 80.323 0 82.63-1.0311 4.911-5.1702 9.0501-10.081 10.081-2.2452 0.47138-89.317 0.45977-91.506-0.0122zm91.028-9.0549c0.46016-0.28608 1.1013-0.91995 1.4246-1.4086l0.58798-0.88845 0.0579-29.66 0.0579-29.66h-94.691l0.0012 29.205c8.33e-4 19.885 0.07532 29.472 0.23341 30.041 0.2837 1.0216 1.6833 2.4697 2.661 2.7531 0.44823 0.12994 17.379 0.1953 44.775 0.17284l44.055-0.0361 0.83667-0.52014zm-84.672-12.959v-4.3835h8.7671v8.7671h-8.7671zm17.534 0v-4.3835h8.7671v8.7671h-8.7671zm17.534 0v-4.3835h8.7671v8.7671h-8.7671zm17.534 0v-4.3835h8.7671v8.7671h-8.7671zm-52.602-17.534v-4.3835h8.7671v8.7671h-8.7671zm17.534 0v-4.3835h8.7671v8.7671h-8.7671zm17.534 0v-4.3835h8.7671v8.7671h-8.7671zm17.534 0v-4.3835h8.7671v8.7671h-8.7671zm17.534 0v-4.3835h8.7671v8.7671h-8.7671zm-70.137-17.534v-4.3835h8.7671v8.7671h-8.7671zm17.534 0v-4.3835h8.7671v8.7671h-8.7671zm17.534 0v-4.3835h8.7671v8.7671h-8.7671zm17.534 0v-4.3835h8.7671v8.7671h-8.7671zm17.534 0v-4.3835h8.7671v8.7671h-8.7671zm16.616-28.345-0.0677-5.9892-0.58798-0.88789c-0.32339-0.48835-0.96449-1.122-1.4246-1.408-0.7674-0.47708-1.1134-0.52631-4.1791-0.59461l-3.3424-0.0745v8.8064h-8.7671v-8.7671h-57.863v8.7671h-8.7671v-8.8064l-3.3424 0.0745c-3.0657 0.0683-3.4117 0.11753-4.1791 0.59461-0.46017 0.28608-1.1013 0.91969-1.4247 1.408l-0.58798 0.88789-0.06768 5.9892-0.06768 5.9892h94.736z" stroke-width=".21918"/></svg>
