<?xml version="1.0" encoding="UTF-8"?>
<svg width="200" height="200" version="1.1" viewBox="0 0 95 87" xml:space="preserve" xmlns="http://www.w3.org/2000/svg"><path d="m2.2908 87.293c-0.85853-0.29921-1.9371-1.4368-2.1652-2.2836-0.43647-1.621 0.29256-3.2874 1.746-3.991 0.78331-0.37919 1.075-0.39514 7.225-0.39514h6.4087l-6.5314-6.5667c-6.9872-7.0248-7.4447-7.5868-8.3818-10.294-0.46039-1.3302-0.51505-1.7461-0.51388-3.9103 1e-3 -2.1759 0.0555-2.5806 0.53545-3.9868 0.29379-0.86078 0.92885-2.1601 1.4113-2.8875 0.66095-0.99653 6.9535-7.3865 25.534-25.929 15.025-14.994 25.023-24.834 25.593-25.188 3.6994-2.296 8.588-2.4793 12.756-0.47831 1.347 0.64667 1.8594 1.1332 14.272 13.55 9.6836 9.6865 13.017 13.133 13.446 13.903 2.3944 4.3 2.1922 9.4837-0.52812 13.541-0.33062 0.49309-8.9927 9.3004-19.249 19.572l-18.648 18.675h17.19c16.796 0 17.207 9e-3 17.917 0.37086 1.1195 0.57112 1.7372 1.5107 1.8292 2.7823 0.0987 1.365-0.39902 2.4119-1.4899 3.1338l-0.77443 0.51251-43.512 0.0325c-29.871 0.0223-43.687-0.0286-44.071-0.1623zm53.931-17.568 10.897-10.898-30.832-30.83-14.242 14.251c-11.654 11.661-14.319 14.42-14.667 15.182-0.33482 0.73249-0.42354 1.2498-0.41535 2.4218 0.0177 2.5382-0.19605 2.2685 9.5638 12.063l8.679 8.7094 20.12-7.4e-4 10.897-10.898zm23.685-23.705c8.658-8.691 8.4589-8.4324 8.4382-10.963-0.0199-2.4281 0.3796-1.9586-13.162-15.469-11.589-11.562-12.21-12.149-13.187-12.467-1.5936-0.51896-3.1294-0.4308-4.5221 0.25957-0.99799 0.49474-2.2117 1.628-8.7037 8.1271l-7.544 7.5522 15.368 15.369c8.4522 8.4527 15.412 15.369 15.466 15.369 0.0542 0 3.5852-3.4999 7.8466-7.7775z" stroke-width=".18629"/></svg>
