<?xml version="1.0" encoding="UTF-8"?>
<svg width="200" height="200" version="1.1" viewBox="0 0 59.587 59.587" xml:space="preserve" xmlns="http://www.w3.org/2000/svg"><path d="m29.794 2.5469e-8a29.793 29.793 0 0 0-29.794 29.794 29.793 29.793 0 0 0 29.794 29.793 29.793 29.793 0 0 0 29.793-29.793 29.793 29.793 0 0 0-29.793-29.794zm0 1.9864a27.807 27.807 0 0 1 27.807 27.807 27.807 27.807 0 0 1-27.807 27.807 27.807 27.807 0 0 1-27.807-27.807 27.807 27.807 0 0 1 27.807-27.807z"/><path d="m29.794 16.313a10.428 10.428 0 0 0-10.428 10.427 10.428 10.428 0 0 0 10.428 10.428 10.428 10.428 0 0 0 10.427-10.428 10.428 10.428 0 0 0-10.427-10.427zm0 1.9859a8.4414 8.4414 0 0 1 8.4413 8.4413 8.4414 8.4414 0 0 1-8.4413 8.4419 8.4414 8.4414 0 0 1-8.4413-8.4419 8.4414 8.4414 0 0 1 8.4413-8.4413z"/><path d="m30.119 35.19a29.793 29.793 0 0 0-24.348 12.647 29.793 29.793 0 0 0 1.3157 1.6046 27.807 27.807 0 0 1 23.032-12.265 27.807 27.807 0 0 1 22.451 11.403 29.793 29.793 0 0 0 1.2454-1.6526 29.793 29.793 0 0 0-23.696-11.737z"/></svg>
