<?xml version="1.0" encoding="UTF-8"?>
<svg width="200" height="200" version="1.1" viewBox="0 0 59.587 59.587" xml:space="preserve" xmlns="http://www.w3.org/2000/svg"><path d="m29.793 2.5469e-8a29.793 29.793 0 0 0-29.793 29.794 29.793 29.793 0 0 0 29.793 29.793 29.793 29.793 0 0 0 29.794-29.793 29.793 29.793 0 0 0-29.794-29.794zm0 1.9864a27.807 27.807 0 0 1 27.807 27.807 27.807 27.807 0 0 1-27.807 27.807 27.807 27.807 0 0 1-27.807-27.807 27.807 27.807 0 0 1 27.807-27.807z"/><path d="m31.457 42.985v3.9823h-3.6505v-3.9823zm-3.3186-4.812v-2.489q0-3.9823 3.4845-7.6328 2.323-2.489 2.323-6.8031 0-3.1527-1.3274-4.4801-0.99558-0.99558-2.6549-0.99558-1.4934 0-2.6549 1.1615-1.8252 1.8252-1.8252 6.6372h-3.6505q-0.16593-6.1394 2.6549-8.9602 1.9912-1.9912 5.4757-1.9912t5.3098 1.8252q2.489 2.489 2.489 6.6372 0 5.6416-3.6505 9.2921-2.9868 2.9867-2.9868 5.4757v2.323z" stroke-linecap="round" stroke-width="4.6826"/></svg>

