<?xml version="1.0" encoding="UTF-8"?>
<svg width="106" height="106" version="1.1" viewBox="0 0 106 106" xml:space="preserve" xmlns="http://www.w3.org/2000/svg"><g transform="translate(-157.48 -189.13)"><path d="m204.25 294.51c-17.157-1.9242-32.508-12.451-40.701-27.909-8.0903-15.265-8.0903-33.947 0-49.212 9.9059-18.691 29.998-29.794 50.821-28.084 16.529 1.3572 30.778 9.7413 40.085 23.587 10.572 15.727 11.619 36.817 2.6661 53.71-10.264 19.368-31.076 30.354-52.872 27.909zm11.057-4.9082c11.301-1.2416 21.572-6.2832 29.424-14.444 1.528-1.5879 3.572-4.0104 4.5424-5.3833 2.0349-2.8792 2.0829-2.3743-0.56586-5.9524-2.9115-3.9331-6.4677-7.4284-10.574-10.393l-1.1734-0.84715-1.4809 2.7096c-6.6728 12.21-16.233 21.432-28.642 27.629-3.0882 1.5422-7.3905 3.2616-10.203 4.0776-0.62313 0.18077-1.0398 0.41619-0.92604 0.52316 0.52637 0.49471 6.1996 1.6745 10.526 2.1888 1.7972 0.21368 6.6698 0.15535 9.0724-0.10861zm-22.963-6.6269c16.68-4.1542 31.626-15.946 39.131-30.871l1.0752-2.1385-1.7806-0.84358c-5.2992-2.5106-13.088-4.4813-17.712-4.4813h-1.312l-1.4314 2.1828c-6.0521 9.2295-15.874 16.657-26.992 20.412-3.4927 1.1796-9.4222 2.5404-11.07 2.5404h-0.84309l0.87633 1.241c1.3813 1.956 5.9593 6.605 8.3244 8.4534 1.186 0.92695 3.2009 2.3411 4.4776 3.1426 2.64 1.6574 2.1533 1.6332 7.2566 0.36214zm-19.349-18.375c2.993-0.43951 6.1218-1.1669 8.5006-1.9764 3.438-1.1698 7.1438-2.8459 7.1438-3.231 0-0.12273-0.45799-0.84315-1.0177-1.6009-9.8672-13.358-14.31-31.435-11.814-48.077l0.13885-0.92604-1.4023 1.5023c-2.8231 3.0243-6.0912 8.0896-7.9562 12.331-5.7363 13.047-5.453 27.627 0.78541 40.42 1.1219 2.3007 0.92661 2.2466 5.6219 1.5571zm81.998-5.4786c1.9925-5.2008 2.9175-9.7463 3.1353-15.407l0.1425-3.7042-1.5027-1.6574c-4.0704-4.4893-11.141-9.6633-17.442-12.763-6.5294-3.2119-12.037-4.8799-19.333-5.8554-2.7877-0.37269-13.825-0.401-14.19-0.0364-0.27319 0.27319 0.0514 2.9637 0.72679 6.0245 0.74714 3.386 2.2697 7.7271 3.7741 10.76l1.4867 2.9978 2.3812 0.18018c10.034 0.75924 20.361 4.67 28.178 10.671 3.5287 2.7088 8.4078 7.6339 10.39 10.488 0.47009 0.67687 0.93597 1.1808 1.0353 1.1199 0.0993-0.0609 0.64739-1.3291 1.2179-2.8182zm-59.527-3.7989c3.0737-2.2466 8.0928-7.4552 10.213-10.599l1.8176-2.6947-0.51806-0.87804c-1.6366-2.7738-3.6867-7.9617-4.8461-12.263-1.3681-5.0759-1.7082-8.1157-1.701-15.204 8e-3 -7.4786 0.33942-10.549 1.7129-15.848 0.42987-1.6585 0.78158-3.0597 0.78158-3.1139 0-0.12155-0.44588-0.0286-4.0757 0.84957-4.9467 1.1968-9.9999 3.3704-14.405 6.1962-2.3468 1.5054-2.3072 1.4299-3.1953 6.095-3.0586 16.067 0.43601 32.6 9.731 46.037 1.1743 1.6976 2.1528 2.9104 2.348 2.9104 0.0551 0 1.0166-0.66979 2.1367-1.4884zm61.038-25.958c-3.1667-11.857-11.516-22.61-22.434-28.893-5.6821-3.2696-12.107-5.353-18.764-6.0844-3.5138-0.38604-6.4285-0.36514-6.7558 0.0485-0.30865 0.38997-1.1861 3.0642-1.8014 5.4901-0.68811 2.713-1.1586 6.4229-1.3472 10.623l-0.17406 3.8762 6.3239-0.0257c4.721-0.0192 7.1622 0.0922 9.6312 0.43955 9.174 1.2905 17.158 4.0582 24.857 8.6167 3.0966 1.8335 8.8741 6.013 10.047 7.2683 0.35225 0.37688 0.69781 0.62788 0.76791 0.55778s-0.0876-0.93283-0.35054-1.9172z" stroke-width=".26458"/></g></svg>
