<?xml version="1.0" encoding="UTF-8"?>
<svg width="106" height="106" version="1.1" viewBox="0 0 106 106" xml:space="preserve" xmlns="http://www.w3.org/2000/svg"><g transform="translate(-32.585 -26.917)"><path d="m79.353 132.3c-17.157-1.9242-32.508-12.451-40.701-27.909-8.0903-15.265-8.0903-33.947 0-49.212 9.9059-18.691 29.998-29.794 50.821-28.084 16.529 1.3572 30.778 9.7413 40.085 23.587 10.572 15.727 11.619 36.817 2.6661 53.71-10.264 19.368-31.076 30.354-52.872 27.909zm13.891-5.2769c1.3097-0.23307 2.5988-0.49056 2.8647-0.57219 0.31491-0.0967 1.7015-2.6074 3.9773-7.2017 1.9216-3.8793 3.6482-7.4282 3.837-7.8863l0.34318-0.83302-8.3763-10.624-20.772-0.014-4.1139 5.1737c-2.2626 2.8455-4.1672 5.3161-4.2324 5.4901-0.16682 0.44541 7.401 15.679 7.8805 15.863 0.39194 0.1504 4.7913 0.88628 6.5531 1.0961 1.949 0.23215 9.7625-0.0876 12.039-0.49266zm-26.09-3.7808c-0.14589-0.40018-1.4196-2.9884-2.8305-5.7517l-2.5652-5.0241-6.0854-1.5009c-7.3886-1.8223-7.8052-1.9066-7.8052-1.5787 0 0.14168 1.2773 1.5905 2.8384 3.2197 4.2058 4.3891 8.2138 7.3719 13.488 10.038 3.0662 1.5499 3.3265 1.6024 2.9603 0.59806zm39.484-0.58615c5.2619-2.6342 9.3023-5.6346 13.533-10.05 1.5611-1.6291 2.8384-3.078 2.8384-3.2197 0-0.32787-0.41657-0.24361-7.8052 1.5787l-6.0854 1.5009-2.5652 5.0241c-2.8456 5.5731-3.2396 6.4793-2.8177 6.4793 0.15292 0 1.459-0.59119 2.9023-1.3138zm-39.851-20.35c2.2547-2.8195 4.0994-5.3113 4.0994-5.5373 0-0.39819-5.4411-17.824-6.2739-20.093l-0.41283-1.1248-5.8509-1.8892c-3.218-1.0391-6.2156-1.9021-6.6613-1.9179-0.70078-0.02482-1.6939 0.77088-7.3422 5.8826-7.4057 6.7022-6.8504 5.7963-6.1269 9.9952 0.79068 4.5883 2.2286 9.0503 4.2573 13.211 0.85541 1.7543 1.0645 1.9958 1.9192 2.2174 0.52756 0.13675 4.2334 1.0404 8.2352 2.0082 4.0018 0.96775 7.8118 1.9149 8.4667 2.1049s1.2807 0.32838 1.3907 0.30768 2.0448-2.3445 4.2995-5.164zm44.964 4.3376c4.2688-1.017 14.79-3.5869 15.264-3.728 0.23843-0.0711 0.86395-1.0121 1.39-2.0909 2.0251-4.153 3.4636-8.6181 4.2538-13.204 0.72357-4.1988 1.2789-3.2929-6.1269-9.9952-5.6483-5.1117-6.6414-5.9074-7.3422-5.8826-0.44572 0.0158-3.4433 0.87886-6.6613 1.9179l-5.8509 1.8892-0.41283 1.1248c-0.7426 2.0233-6.2739 19.674-6.2739 20.02 0 0.1857 1.8752 2.7084 4.1672 5.6061 2.8533 3.6073 4.2881 5.2223 4.5507 5.1221 0.21096-0.0805 1.5802-0.43141 3.0427-0.77986zm-16.03-13.432c3.2446-9.9972 5.8521-18.512 5.7295-18.711-0.30605-0.4952-15.629-11.493-16.013-11.493-0.38389 0-15.707 10.998-16.013 11.493-0.12254 0.19827 2.4849 8.7134 5.7295 18.711l0.53669 1.6536h19.493zm-54.198-19.817c1.9613-1.7681 4.1823-3.7906 4.9356-4.4944l1.3696-1.2797-1.0565-5.0967c-0.58108-2.8032-1.1886-5.7813-1.3501-6.6181-0.16148-0.83674-0.36188-1.521-0.44534-1.5205-0.55 3e-3 -3.9394 7.1804-5.1486 10.902-1.1446 3.5236-2.5391 11.322-2.0245 11.322 0.0846 0 1.7586-1.4466 3.7199-3.2148zm91.492 1.1642c-0.45026-4.3629-1.7232-9.1779-3.5848-13.56-1.0051-2.3659-3.272-6.6124-3.5305-6.6138-0.0835-5.29e-4 -0.28386 0.68379-0.44534 1.5205s-0.76903 3.8149-1.3501 6.6181l-1.0565 5.0967 1.3696 1.2797c2.9651 2.7705 8.51 7.7092 8.6555 7.7092 0.0846 0 0.0587-0.92273-0.0577-2.0505zm-58.419-10.162 8.4606-6.1388v-14.704l-15.942-7.9972-1.6162 0.72533c-4.6473 2.0856-9.1938 5.2311-13.348 9.2348-3.0082 2.8993-3.0152 2.909-2.88 3.9688 0.10733 0.84095 1.9178 9.7286 3.282 16.111l0.21928 1.0259 6.3449 2.0541c3.4897 1.1297 6.4964 2.0102 6.6817 1.9566 0.18523-0.0536 4.1441-2.8599 8.7974-6.2362zm37.031 4.3002 6.4774-2.077 0.21903-1.0247c1.3631-6.3773 3.1745-15.269 3.2818-16.11 0.13525-1.0598 0.12819-1.0695-2.88-3.9688-4.154-4.0036-8.7005-7.1492-13.348-9.2348l-1.6162-0.72533-15.942 7.9972v14.707l8.6385 6.2637c4.7512 3.4451 8.6505 6.2606 8.6651 6.2567 0.0146-0.0039 2.9414-0.94175 6.504-2.0841zm-20.317-32.488c4.1824-2.1297 5.4317-2.875 5.0539-3.0147-3.2178-1.1903-13.765-1.5646-18.717-0.66424-4.2728 0.77684-4.3895 0.54317 1.8385 3.6807 3.0559 1.5395 5.7167 2.8055 5.9127 2.8133 0.19605 0.0078 2.8566-1.2589 5.9123-2.8149z" stroke-width=".26458"/></g></svg>
