<?xml version="1.0" encoding="UTF-8"?>
<svg version="1.1" viewBox="0 0 106 106" xml:space="preserve" xmlns="http://www.w3.org/2000/svg">
<g transform="translate(-36.57 -52.787)">
<path d="m83.338 158.17c-17.157-1.9242-32.508-12.451-40.701-27.909-8.0903-15.265-8.0903-33.947 0-49.212 9.9059-18.691 29.998-29.794 50.821-28.084 16.529 1.3572 30.778 9.7413 40.085 23.587 10.572 15.727 11.619 36.817 2.6661 53.71-10.264 19.368-31.076 30.354-52.872 27.909zm16.001-5.7067c8.5277-1.7988 16.523-5.9987 22.809-11.981l2.4654-2.3464-2e-3 -3.739c-5e-3 -7.5014-1.3976-15.733-3.9639-23.428-1.2216-3.6628-1.7896-5.0493-2.0688-5.0493-0.38263 0-3.4618 2.7638-4.7164 4.2333-2.7594 3.2322-4.2633 6.0854-6.185 11.735-3.8006 11.172-8.953 22.015-14.062 29.592-0.55881 0.82876-1.016 1.6098-1.016 1.7355 0 0.31632 3.5606-0.0805 6.7402-0.75123zm-12.254-0.44062c6.1069-8.123 11.298-18.569 16.099-32.394 1.7024-4.9027 2.9633-7.458 5.247-10.634 1.5213-2.1156 5.2231-5.8408 7.0004-7.0448 0.53706-0.3638 0.97727-0.8207 0.97827-1.0153 5e-3 -0.88424-4.4863-8.3054-4.9242-8.1374-0.16459 0.0632-6.2376 4.447-13.495 9.7418-37.384 27.272-44.466 32.428-45.012 32.769-0.32742 0.20416-0.59531 0.46807-0.59531 0.58647 0 0.42951 5.2121 5.585 7.276 7.197 5.3248 4.1589 11.008 7.0445 17.198 8.7325 3.0119 0.82131 6.2298 1.4007 7.9493 1.4313 1.2931 0.023 1.3641-0.0154 2.2795-1.233zm-27.888-27.404c5.0558-3.6933 16.812-12.27 26.126-19.059 9.3133-6.7893 18.398-13.417 20.189-14.727l3.2558-2.3832-1.2653-1.6105c-0.69591-0.88577-2.1671-2.5723-3.2693-3.7478l-2.004-2.1374-1.7531 1.2254c-3.8197 2.6698-8.6501 4.6032-13.301 5.3238-1.4552 0.22545-5.9201 0.53002-9.9219 0.67682-7.5949 0.2786-12.16 0.69713-17.727 1.6253-5.1786 0.86338-11.405 2.3971-15.116 3.7236l-1.4899 0.53254-0.42545 2.1588c-2.0831 10.57-0.62586 21.329 4.1838 30.887 1.6697 3.3183 2.4963 4.5461 2.9447 4.374 0.20996-0.0806 4.5183-3.1683 9.5741-6.8616zm71.97 4.3849c3.1724-5.6676 5.1475-11.858 5.8639-18.378 0.31604-2.8766 0.36853-6.914 0.11401-8.7709l-0.16825-1.2276h-2.3161c-2.6872 0-5.906 0.54279-8.7245 1.4712-2.8367 0.93447-2.7959 0.89412-2.2976 2.27 0.2298 0.63443 0.78341 2.1656 1.2302 3.4025 2.3537 6.5154 3.8717 13.629 4.644 21.762 0.0933 0.98226 0.21206 1.7859 0.26397 1.7859 0.0519 0 0.67752-1.0418 1.3903-2.3151zm-6.6413-31.681c2.9827-1.0374 6.875-1.7191 9.8287-1.7214 1.7174-1e-3 1.9211-0.0538 1.8039-0.46458-0.0727-0.25466-0.37679-1.356-0.67573-2.4474-0.29893-1.0914-0.90978-2.9369-1.3574-4.101-1.3476-3.5047-4.1886-8.8737-4.6866-8.857-0.21574 7e-3 -12.686 9.0695-13.247 9.627-0.29236 0.29035-0.14204 0.67668 0.8895 2.286 0.68272 1.0651 1.8391 3.0554 2.5698 4.4229 1.0095 1.8894 1.4312 2.4509 1.7563 2.3388 0.23533-0.0811 1.6387-0.56858 3.1185-1.0833zm-77.302-9.9281c9.2777-2.6672 17.173-3.7078 33.998-4.4807 5.8869-0.27043 7.8961-0.64364 11.466-2.1298 1.9531-0.81307 5.7379-3.0598 5.7254-3.3987-0.0081-0.22067-4.6499-3.8882-7.0434-5.5652-2.938-2.0584-7.144-4.5141-10.545-6.1568-3.4916-1.6864-9.2096-3.9303-10.015-3.9303-0.2819 0-1.5787 0.53769-2.8818 1.1949-9.1254 4.6022-16.638 12.11-21.214 21.202-1.3696 2.7212-1.8043 3.7967-1.5346 3.7967 0.106 0 1.0258-0.2395 2.044-0.53222zm72.702-7.0375c3.585-2.6034 6.5231-4.8291 6.5291-4.9461 0.0213-0.41493-5.1804-5.5663-7.2651-7.1948-2.1315-1.665-5.351-3.8372-5.6872-3.8372-0.0997 0-0.34065 0.50602-0.53552 1.1245-1.0278 3.2621-3.5671 7.8942-5.716 10.427-0.637 0.75082-1.1582 1.4462-1.1582 1.5453 0 0.0991 0.84057 1.0922 1.8679 2.2068s2.4859 2.8269 3.2411 3.8051c0.85194 1.1034 1.5312 1.7452 1.7894 1.6907 0.22891-0.0484 3.3494-2.218 6.9344-4.8213zm-16.787-7.3703c2.0679-2.3552 4.0564-5.9553 5.0628-9.166 0.2915-0.92997 0.53154-1.7652 0.53341-1.8561 5e-3 -0.233-4.767-1.9708-7.1403-2.6004-6.6592-1.7665-14.15-2.0344-21.101-0.75463-0.9095 0.16746-1.6536 0.38851-1.6536 0.49122s0.38695 0.33828 0.8599 0.52349c1.8795 0.73603 8.2271 4.0134 10.559 5.452 4.0081 2.4723 9.8335 6.7822 11.178 8.2697 0.66439 0.73532 0.75785 0.71558 1.7016-0.35929z" stroke-width=".26458"/>
</g>
</svg>